<mxfile host="app.diagrams.net" agent="Mozilla/5.0 (X11; Linux x86_64) AppleWebKit/537.36 (KHTML, like Gecko) Chrome/132.0.0.0 Safari/537.36" version="26.0.11">
  <diagram name="Page-1" id="dk2FRSk-a_MqC82rYBNf">
    <mxGraphModel grid="1" page="1" gridSize="10" guides="1" tooltips="1" connect="1" arrows="1" fold="1" pageScale="1" pageWidth="827" pageHeight="1169" math="0" shadow="0">
      <root>
        <mxCell id="0" />
        <mxCell id="1" parent="0" />
        <mxCell id="4sUv7fobgfytwzDQpEka-54" value="" style="rounded=0;whiteSpace=wrap;html=1;strokeColor=none;" vertex="1" parent="1">
          <mxGeometry x="-50" y="180" width="880" height="250" as="geometry" />
        </mxCell>
        <mxCell id="4sUv7fobgfytwzDQpEka-52" value="" style="rounded=0;whiteSpace=wrap;html=1;fillColor=none;" vertex="1" parent="1">
          <mxGeometry x="750" y="200" width="70" height="200" as="geometry" />
        </mxCell>
        <mxCell id="yYL735lNImk8aysMsxy9-1" value="&lt;b&gt;Jenkins CICD pipeline for sparta test app&amp;nbsp;&lt;/b&gt;" style="text;html=1;align=center;verticalAlign=middle;whiteSpace=wrap;rounded=0;" vertex="1" parent="1">
          <mxGeometry x="-40" y="180" width="250" height="30" as="geometry" />
        </mxCell>
        <mxCell id="yYL735lNImk8aysMsxy9-2" value="" style="shape=link;html=1;rounded=0;" edge="1" parent="1">
          <mxGeometry width="100" relative="1" as="geometry">
            <mxPoint x="-40" y="203" as="sourcePoint" />
            <mxPoint x="740" y="203" as="targetPoint" />
          </mxGeometry>
        </mxCell>
        <mxCell id="yYL735lNImk8aysMsxy9-3" value="&lt;font style=&quot;color: rgb(255, 255, 255);&quot;&gt;CI&lt;/font&gt;" style="text;html=1;align=center;verticalAlign=middle;whiteSpace=wrap;rounded=0;fillColor=#007FFF;" vertex="1" parent="1">
          <mxGeometry x="755" y="270" width="60" height="30" as="geometry" />
        </mxCell>
        <mxCell id="yYL735lNImk8aysMsxy9-6" value="&lt;font style=&quot;color: rgb(255, 255, 255);&quot;&gt;CD&lt;/font&gt;" style="text;html=1;align=center;verticalAlign=middle;whiteSpace=wrap;rounded=0;fillColor=#00CC66;" vertex="1" parent="1">
          <mxGeometry x="755" y="310" width="60" height="30" as="geometry" />
        </mxCell>
        <mxCell id="4sUv7fobgfytwzDQpEka-1" value="&lt;div style=&quot;text-align: center;&quot;&gt;&lt;font style=&quot;color: rgb(255, 0, 0);&quot;&gt;&lt;span style=&quot;text-wrap-mode: nowrap;&quot;&gt;Github repo&amp;nbsp;&lt;/span&gt;&lt;/font&gt;&lt;/div&gt;" style="text;whiteSpace=wrap;html=1;" vertex="1" parent="1">
          <mxGeometry x="80" y="230" width="80" height="30" as="geometry" />
        </mxCell>
        <mxCell id="4sUv7fobgfytwzDQpEka-4" value="&lt;font style=&quot;color: rgb(255, 0, 0);&quot;&gt;You (a dev)&lt;/font&gt;" style="shape=umlActor;verticalLabelPosition=bottom;verticalAlign=top;html=1;outlineConnect=0;strokeColor=light-dark(#FF0000,#FFFFFF);" vertex="1" parent="1">
          <mxGeometry x="-20" y="290" width="30" height="60" as="geometry" />
        </mxCell>
        <mxCell id="4sUv7fobgfytwzDQpEka-5" value="" style="endArrow=classic;html=1;rounded=0;edgeStyle=entityRelationEdgeStyle;entryX=-0.039;entryY=0.443;entryDx=0;entryDy=0;entryPerimeter=0;strokeColor=light-dark(#FF0000,#FFFFFF);" edge="1" parent="1" source="4sUv7fobgfytwzDQpEka-4" target="4sUv7fobgfytwzDQpEka-1">
          <mxGeometry relative="1" as="geometry">
            <mxPoint x="-20" y="200" as="sourcePoint" />
            <mxPoint x="80" y="200" as="targetPoint" />
          </mxGeometry>
        </mxCell>
        <mxCell id="4sUv7fobgfytwzDQpEka-6" value="&lt;font style=&quot;color: rgb(255, 0, 0); font-size: 9px;&quot;&gt;Git Push to dev branch&lt;/font&gt;" style="edgeLabel;resizable=0;html=1;;align=center;verticalAlign=middle;" connectable="0" vertex="1" parent="4sUv7fobgfytwzDQpEka-5">
          <mxGeometry relative="1" as="geometry" />
        </mxCell>
        <mxCell id="4sUv7fobgfytwzDQpEka-7" value="" style="endArrow=classic;html=1;rounded=0;strokeColor=light-dark(#FF0000,#FFFFFF);" edge="1" parent="1">
          <mxGeometry relative="1" as="geometry">
            <mxPoint x="150" y="244.71" as="sourcePoint" />
            <mxPoint x="250" y="244.71" as="targetPoint" />
          </mxGeometry>
        </mxCell>
        <mxCell id="4sUv7fobgfytwzDQpEka-8" value="&lt;font style=&quot;color: rgb(255, 0, 0); font-size: 9px;&quot;&gt;Webhook&lt;/font&gt;" style="edgeLabel;resizable=0;html=1;;align=center;verticalAlign=middle;" connectable="0" vertex="1" parent="4sUv7fobgfytwzDQpEka-7">
          <mxGeometry relative="1" as="geometry" />
        </mxCell>
        <mxCell id="4sUv7fobgfytwzDQpEka-9" value="&lt;div style=&quot;text-align: center;&quot;&gt;&lt;font style=&quot;color: rgb(0, 0, 0);&quot;&gt;&lt;span style=&quot;text-wrap-mode: nowrap;&quot;&gt;Jenkins&lt;/span&gt;&lt;/font&gt;&lt;/div&gt;" style="text;whiteSpace=wrap;html=1;" vertex="1" parent="1">
          <mxGeometry x="260" y="230" width="50" height="30" as="geometry" />
        </mxCell>
        <mxCell id="4sUv7fobgfytwzDQpEka-12" value="&lt;font style=&quot;font-size: 9px;&quot;&gt;made up of&lt;/font&gt;" style="text;html=1;align=center;verticalAlign=middle;whiteSpace=wrap;rounded=0;" vertex="1" parent="1">
          <mxGeometry x="320" y="240" width="50" height="10" as="geometry" />
        </mxCell>
        <mxCell id="4sUv7fobgfytwzDQpEka-30" value="" style="group" connectable="0" vertex="1" parent="1">
          <mxGeometry x="460" y="260" width="315" height="80" as="geometry" />
        </mxCell>
        <mxCell id="4sUv7fobgfytwzDQpEka-18" value="" style="rounded=1;whiteSpace=wrap;html=1;" vertex="1" parent="4sUv7fobgfytwzDQpEka-30">
          <mxGeometry width="280" height="80" as="geometry" />
        </mxCell>
        <mxCell id="4sUv7fobgfytwzDQpEka-23" value="" style="edgeStyle=orthogonalEdgeStyle;rounded=0;orthogonalLoop=1;jettySize=auto;html=1;" edge="1" parent="4sUv7fobgfytwzDQpEka-30" source="4sUv7fobgfytwzDQpEka-19" target="4sUv7fobgfytwzDQpEka-20">
          <mxGeometry relative="1" as="geometry" />
        </mxCell>
        <mxCell id="4sUv7fobgfytwzDQpEka-19" value="&lt;font style=&quot;color: rgb(0, 127, 255);&quot;&gt;job 1&lt;/font&gt;" style="text;html=1;align=center;verticalAlign=middle;whiteSpace=wrap;rounded=0;" vertex="1" parent="4sUv7fobgfytwzDQpEka-30">
          <mxGeometry x="10" y="10" width="60" height="30" as="geometry" />
        </mxCell>
        <mxCell id="4sUv7fobgfytwzDQpEka-24" value="" style="edgeStyle=orthogonalEdgeStyle;rounded=0;orthogonalLoop=1;jettySize=auto;html=1;" edge="1" parent="4sUv7fobgfytwzDQpEka-30" source="4sUv7fobgfytwzDQpEka-20" target="4sUv7fobgfytwzDQpEka-21">
          <mxGeometry relative="1" as="geometry" />
        </mxCell>
        <mxCell id="4sUv7fobgfytwzDQpEka-20" value="&lt;font style=&quot;color: rgb(0, 127, 255);&quot;&gt;job 2&lt;/font&gt;" style="text;html=1;align=center;verticalAlign=middle;whiteSpace=wrap;rounded=0;" vertex="1" parent="4sUv7fobgfytwzDQpEka-30">
          <mxGeometry x="100" y="10" width="60" height="30" as="geometry" />
        </mxCell>
        <mxCell id="4sUv7fobgfytwzDQpEka-21" value="&lt;font style=&quot;color: rgb(0, 153, 0);&quot;&gt;job 3&lt;/font&gt;" style="text;html=1;align=center;verticalAlign=middle;whiteSpace=wrap;rounded=0;" vertex="1" parent="4sUv7fobgfytwzDQpEka-30">
          <mxGeometry x="195" y="10" width="60" height="30" as="geometry" />
        </mxCell>
        <mxCell id="4sUv7fobgfytwzDQpEka-25" value="&lt;font style=&quot;font-size: 9px; color: rgb(0, 127, 255);&quot;&gt;unit tests in dev branch&lt;/font&gt;" style="text;html=1;align=center;verticalAlign=middle;whiteSpace=wrap;rounded=0;" vertex="1" parent="4sUv7fobgfytwzDQpEka-30">
          <mxGeometry x="10" y="40" width="60" height="30" as="geometry" />
        </mxCell>
        <mxCell id="4sUv7fobgfytwzDQpEka-28" value="&lt;font style=&quot;font-size: 9px; color: rgb(0, 127, 255);&quot;&gt;merge from dev branch to main&lt;/font&gt;" style="text;html=1;align=center;verticalAlign=middle;whiteSpace=wrap;rounded=0;" vertex="1" parent="4sUv7fobgfytwzDQpEka-30">
          <mxGeometry x="90" y="40" width="70" height="30" as="geometry" />
        </mxCell>
        <mxCell id="4sUv7fobgfytwzDQpEka-29" value="&lt;font style=&quot;font-size: 9px; color: rgb(0, 153, 0);&quot;&gt;deploy to VM&lt;/font&gt;" style="text;html=1;align=center;verticalAlign=middle;whiteSpace=wrap;rounded=0;" vertex="1" parent="4sUv7fobgfytwzDQpEka-30">
          <mxGeometry x="190" y="40" width="70" height="30" as="geometry" />
        </mxCell>
        <mxCell id="4sUv7fobgfytwzDQpEka-46" value="" style="rounded=0;whiteSpace=wrap;html=1;fillColor=none;strokeColor=light-dark(#FF00FF,#FFFFFF);" vertex="1" parent="4sUv7fobgfytwzDQpEka-30">
          <mxGeometry x="195" y="10" width="65" height="60" as="geometry" />
        </mxCell>
        <mxCell id="4sUv7fobgfytwzDQpEka-34" value="" style="endArrow=none;dashed=1;html=1;rounded=0;" edge="1" parent="1" source="4sUv7fobgfytwzDQpEka-12" target="4sUv7fobgfytwzDQpEka-9">
          <mxGeometry width="50" height="50" relative="1" as="geometry">
            <mxPoint x="230" y="300" as="sourcePoint" />
            <mxPoint x="280" y="250" as="targetPoint" />
          </mxGeometry>
        </mxCell>
        <mxCell id="4sUv7fobgfytwzDQpEka-35" value="" style="endArrow=none;dashed=1;html=1;rounded=0;exitX=0.5;exitY=0;exitDx=0;exitDy=0;entryX=0.5;entryY=1;entryDx=0;entryDy=0;" edge="1" parent="1" source="4sUv7fobgfytwzDQpEka-10" target="4sUv7fobgfytwzDQpEka-12">
          <mxGeometry width="50" height="50" relative="1" as="geometry">
            <mxPoint x="293" y="286" as="sourcePoint" />
            <mxPoint x="290" y="276" as="targetPoint" />
          </mxGeometry>
        </mxCell>
        <mxCell id="4sUv7fobgfytwzDQpEka-47" value="&lt;font style=&quot;color: rgb(255, 255, 255);&quot;&gt;trigger pipeline&lt;/font&gt;" style="text;html=1;align=center;verticalAlign=middle;whiteSpace=wrap;rounded=0;fillColor=#FF0000;" vertex="1" parent="1">
          <mxGeometry x="755" y="230" width="60" height="30" as="geometry" />
        </mxCell>
        <mxCell id="4sUv7fobgfytwzDQpEka-10" value="" style="rounded=1;whiteSpace=wrap;html=1;" vertex="1" parent="1">
          <mxGeometry x="265" y="260" width="160" height="80" as="geometry" />
        </mxCell>
        <mxCell id="4sUv7fobgfytwzDQpEka-17" value="" style="edgeStyle=orthogonalEdgeStyle;rounded=0;orthogonalLoop=1;jettySize=auto;html=1;curved=1;" edge="1" parent="1" source="4sUv7fobgfytwzDQpEka-13" target="4sUv7fobgfytwzDQpEka-14">
          <mxGeometry relative="1" as="geometry" />
        </mxCell>
        <mxCell id="4sUv7fobgfytwzDQpEka-13" value="master node" style="text;html=1;align=center;verticalAlign=middle;whiteSpace=wrap;rounded=0;" vertex="1" parent="1">
          <mxGeometry x="305" y="260" width="80" height="30" as="geometry" />
        </mxCell>
        <mxCell id="4sUv7fobgfytwzDQpEka-14" value="agent nodes" style="text;html=1;align=center;verticalAlign=middle;whiteSpace=wrap;rounded=0;" vertex="1" parent="1">
          <mxGeometry x="305" y="305" width="80" height="30" as="geometry" />
        </mxCell>
        <mxCell id="4sUv7fobgfytwzDQpEka-36" value="EC2 VM" style="rounded=0;whiteSpace=wrap;html=1;strokeColor=light-dark(#CC00CC,#FFFFFF);" vertex="1" parent="1">
          <mxGeometry x="210" y="340" width="50" height="30" as="geometry" />
        </mxCell>
        <mxCell id="4sUv7fobgfytwzDQpEka-44" value="" style="edgeStyle=orthogonalEdgeStyle;rounded=0;orthogonalLoop=1;jettySize=auto;html=1;strokeColor=light-dark(#CC00CC,#FFFFFF);" edge="1" parent="1" source="4sUv7fobgfytwzDQpEka-38" target="4sUv7fobgfytwzDQpEka-36">
          <mxGeometry relative="1" as="geometry" />
        </mxCell>
        <mxCell id="4sUv7fobgfytwzDQpEka-38" value="&lt;font style=&quot;font-size: 9px;&quot;&gt;SSH into VM to deploy code&amp;nbsp;&lt;/font&gt;" style="text;html=1;align=center;verticalAlign=middle;whiteSpace=wrap;rounded=0;strokeColor=light-dark(#CC00CC,#FFFFFF);" vertex="1" parent="1">
          <mxGeometry x="110" y="320" width="60" height="40" as="geometry" />
        </mxCell>
        <mxCell id="4sUv7fobgfytwzDQpEka-40" value="" style="curved=1;endArrow=classic;html=1;rounded=0;exitX=0;exitY=0.5;exitDx=0;exitDy=0;strokeColor=light-dark(#CC00CC,#FFFFFF);" edge="1" parent="1" source="4sUv7fobgfytwzDQpEka-13" target="4sUv7fobgfytwzDQpEka-37">
          <mxGeometry width="50" height="50" relative="1" as="geometry">
            <mxPoint x="305" y="275" as="sourcePoint" />
            <mxPoint x="235" y="389" as="targetPoint" />
            <Array as="points">
              <mxPoint x="265" y="300" />
            </Array>
          </mxGeometry>
        </mxCell>
        <mxCell id="4sUv7fobgfytwzDQpEka-42" value="" style="edgeStyle=orthogonalEdgeStyle;rounded=0;orthogonalLoop=1;jettySize=auto;html=1;curved=1;strokeColor=light-dark(#CC00CC,#FFFFFF);entryX=0.5;entryY=0;entryDx=0;entryDy=0;" edge="1" parent="1" source="4sUv7fobgfytwzDQpEka-37" target="4sUv7fobgfytwzDQpEka-38">
          <mxGeometry relative="1" as="geometry" />
        </mxCell>
        <mxCell id="4sUv7fobgfytwzDQpEka-37" value="&lt;font style=&quot;font-size: 9px;&quot;&gt;authenticate using private key&lt;/font&gt;" style="text;html=1;align=center;verticalAlign=middle;whiteSpace=wrap;rounded=0;strokeColor=light-dark(#CC00CC,#FFFFFF);" vertex="1" parent="1">
          <mxGeometry x="185" y="275" width="60" height="45" as="geometry" />
        </mxCell>
        <mxCell id="4sUv7fobgfytwzDQpEka-49" value="" style="shape=link;html=1;rounded=0;" edge="1" parent="1">
          <mxGeometry width="100" relative="1" as="geometry">
            <mxPoint x="-40" y="397" as="sourcePoint" />
            <mxPoint x="740" y="397" as="targetPoint" />
          </mxGeometry>
        </mxCell>
        <mxCell id="4sUv7fobgfytwzDQpEka-50" value="&lt;b&gt;Key&lt;/b&gt;" style="text;html=1;align=center;verticalAlign=middle;whiteSpace=wrap;rounded=0;" vertex="1" parent="1">
          <mxGeometry x="763.5" y="200" width="43" height="20" as="geometry" />
        </mxCell>
        <mxCell id="4sUv7fobgfytwzDQpEka-51" value="&lt;font color=&quot;#ffffff&quot;&gt;step needs credentials&lt;/font&gt;" style="text;html=1;align=center;verticalAlign=middle;whiteSpace=wrap;rounded=0;fillColor=#FF00FF;" vertex="1" parent="1">
          <mxGeometry x="755" y="350" width="60" height="40" as="geometry" />
        </mxCell>
        <mxCell id="4sUv7fobgfytwzDQpEka-15" value="" style="endArrow=classic;html=1;rounded=0;edgeStyle=orthogonalEdgeStyle;curved=1;entryX=0;entryY=0.5;entryDx=0;entryDy=0;" edge="1" parent="1" source="4sUv7fobgfytwzDQpEka-14" target="4sUv7fobgfytwzDQpEka-18">
          <mxGeometry relative="1" as="geometry">
            <mxPoint x="230" y="450" as="sourcePoint" />
            <mxPoint x="10" y="435" as="targetPoint" />
          </mxGeometry>
        </mxCell>
        <mxCell id="4sUv7fobgfytwzDQpEka-16" value="run the jobs" style="edgeLabel;resizable=0;html=1;;align=center;verticalAlign=middle;" connectable="0" vertex="1" parent="4sUv7fobgfytwzDQpEka-15">
          <mxGeometry relative="1" as="geometry" />
        </mxCell>
      </root>
    </mxGraphModel>
  </diagram>
</mxfile>
